<?xml version="1.0" standalone="no"?>
<!DOCTYPE svg PUBLIC "-//W3C//DTD SVG 20010904//EN"
 "http://www.w3.org/TR/2001/REC-SVG-20010904/DTD/svg10.dtd">
<svg version="1.0" xmlns="http://www.w3.org/2000/svg"
 width="189.000000pt" height="66.000000pt" viewBox="0 0 189.000000 66.000000"
 preserveAspectRatio="xMidYMid meet">

<g transform="translate(0.000000,66.000000) scale(0.100000,-0.100000)"
fill="#000000" stroke="none">
<path d="M0 331 c0 -114 1 -121 20 -121 18 0 20 7 20 54 0 36 5 60 16 70 37
38 64 10 64 -66 0 -45 3 -58 15 -58 12 0 15 15 15 75 0 71 -1 76 -26 87 -19 9
-33 9 -54 1 -29 -11 -29 -11 -32 30 -2 30 -8 43 -20 45 -16 3 -18 -8 -18 -117z"/>
<path d="M1200 411 c0 -21 -5 -31 -15 -31 -8 0 -15 -7 -15 -15 0 -8 7 -15 15
-15 11 0 15 -16 17 -67 l3 -68 33 -3 c24 -2 32 1 32 12 0 9 -3 15 -7 15 -28
-5 -33 4 -33 56 0 48 2 55 20 55 11 0 20 7 20 15 0 8 -9 15 -19 15 -14 0 -21
8 -23 27 -4 39 -28 42 -28 4z"/>
<path d="M1310 411 c0 -18 -6 -31 -17 -36 -17 -6 -17 -7 -1 -19 12 -9 18 -30
20 -77 l3 -64 33 -3 c25 -3 32 1 32 14 0 10 -3 14 -7 11 -15 -16 -33 18 -33
64 0 42 3 49 20 49 11 0 20 7 20 15 0 8 -9 15 -20 15 -16 0 -20 7 -20 30 0 20
-5 30 -15 30 -10 0 -15 -10 -15 -29z"/>
<path d="M210 307 c0 -43 5 -78 12 -85 16 -16 100 -16 116 0 17 17 16 161 0
156 -8 -3 -15 -29 -18 -63 -6 -65 -26 -89 -57 -69 -13 8 -19 27 -21 73 -2 45
-7 61 -17 61 -12 0 -15 -16 -15 -73z"/>
<path d="M429 364 c-7 -9 -15 -47 -17 -85 -4 -64 -3 -69 16 -69 19 0 21 7 24
61 2 45 8 65 20 72 30 19 48 -8 48 -74 0 -52 2 -59 20 -59 18 0 20 7 20 59 0
40 5 63 15 71 27 23 45 -5 45 -71 0 -52 2 -59 20 -59 18 0 20 7 20 63 0 80
-17 107 -69 107 -20 0 -43 -6 -49 -12 -10 -10 -17 -10 -32 0 -28 17 -65 15
-81 -4z"/>
<path d="M732 364 c-12 -8 -22 -19 -22 -25 0 -14 30 -11 46 6 19 19 25 19 50
0 24 -18 10 -30 -47 -39 -47 -7 -67 -36 -50 -72 10 -22 17 -24 76 -24 l65 0 0
75 c0 63 -3 76 -19 85 -28 15 -73 12 -99 -6z m88 -93 c0 -25 -24 -43 -52 -39
-31 4 -36 36 -6 47 38 16 58 13 58 -8z"/>
<path d="M922 368 c-7 -7 -12 -42 -12 -85 0 -58 3 -73 15 -73 12 0 15 13 15
59 0 64 15 87 49 76 17 -5 21 -16 23 -68 2 -49 6 -62 21 -65 15 -3 17 5 17 67
0 50 -4 74 -16 85 -18 19 -94 22 -112 4z"/>
<path d="M1100 295 c0 -78 2 -85 20 -85 18 0 20 7 20 75 0 64 -3 76 -20 85
-19 10 -20 8 -20 -75z"/>
<path d="M1427 362 c-22 -24 -21 -32 3 -32 11 0 20 4 20 9 0 16 40 23 55 11
24 -20 18 -29 -22 -36 -70 -12 -96 -42 -73 -84 9 -17 21 -20 75 -20 l65 0 0
73 c0 43 -5 78 -12 85 -19 19 -92 15 -111 -6z m93 -91 c0 -25 -24 -43 -52 -39
-31 4 -36 36 -6 47 38 16 58 13 58 -8z"/>
<path d="M1608 295 c-3 -76 -1 -85 15 -85 14 0 17 9 17 46 0 51 14 84 35 84 8
0 15 9 15 20 0 23 -10 26 -28 8 -8 -8 -15 -9 -20 -3 -21 30 -31 11 -34 -70z"/>
<path d="M1760 367 c-55 -28 -48 -133 10 -157 33 -14 83 -6 101 16 20 25 -8
35 -41 16 -27 -15 -30 -15 -49 2 -38 35 -27 46 45 46 56 0 65 2 60 16 -3 9 -6
20 -6 25 0 5 -9 18 -20 29 -23 23 -63 26 -100 7z m78 -29 c21 -21 13 -28 -33
-28 -25 0 -45 4 -45 8 0 15 24 32 45 32 12 0 26 -5 33 -12z"/>
</g>
</svg>
